<?xml version="1.0" encoding="UTF-8" standalone="no"?>
<!-- Created with Inkscape (http://www.inkscape.org/) -->

<svg
   width="50.390106mm"
   height="4.1189489mm"
   viewBox="0 0 50.390106 4.1189489"
   version="1.1"
   id="svg1"
   inkscape:version="1.4 (86a8ad7, 2024-10-11)"
   sodipodi:docname="DiodeCharacteristicsVoltageEquation.svg"
   xmlns:inkscape="http://www.inkscape.org/namespaces/inkscape"
   xmlns:sodipodi="http://sodipodi.sourceforge.net/DTD/sodipodi-0.dtd"
   xmlns="http://www.w3.org/2000/svg"
   xmlns:svg="http://www.w3.org/2000/svg"
   xmlns:ns16="http://www.iki.fi/pav/software/textext/">
  <sodipodi:namedview
     id="namedview1"
     pagecolor="#ffffff"
     bordercolor="#000000"
     borderopacity="0.25"
     inkscape:showpageshadow="2"
     inkscape:pageopacity="0.0"
     inkscape:pagecheckerboard="0"
     inkscape:deskcolor="#d1d1d1"
     inkscape:document-units="mm"
     inkscape:zoom="2.0535659"
     inkscape:cx="376.41841"
     inkscape:cy="186.74833"
     inkscape:window-width="1920"
     inkscape:window-height="1017"
     inkscape:window-x="-8"
     inkscape:window-y="-8"
     inkscape:window-maximized="1"
     inkscape:current-layer="layer1">
    <inkscape:page
       x="0"
       y="0"
       width="50.390106"
       height="4.1189489"
       id="page2"
       margin="0"
       bleed="0" />
  </sodipodi:namedview>
  <defs
     id="defs1" />
  <g
     inkscape:label="Capa 1"
     inkscape:groupmode="layer"
     id="layer1"
     transform="translate(-75.565917,-20.717057)">
    <g
       transform="matrix(0.352778,0,0,0.352778,75.5661,20.7171)"
       ns16:version="1.10.2"
       ns16:texconverter="pdflatex"
       ns16:pdfconverter="inkscape"
       ns16:text="$V_O \\simeq V_\\text{N} - RI_Se^\\frac{x}{V_T} = d - e\\cdot e^{f\\cdot x}$"
       ns16:preamble="C:\Users\JosePedro\AppData\Roaming\inkscape\extensions\circuitSymbols\circuitSymbolsPreamble.tex"
       ns16:scale="1.0000000283464388"
       ns16:alignment="middle center"
       ns16:stroke-to-path="0"
       ns16:jacobian_sqrt="0.352778"
       id="g23">
      <defs
         id="id-61a6cb9c-8e6d-4645-94c9-401c7cf29204" />
      <g
         fill="#000000"
         fill-opacity="1"
         id="id-f91996c0-481e-4b17-9526-7816e8b0fcdf"
         transform="translate(-149.275,-124.744)">
        <g
           transform="translate(148.712,134.785)"
           id="g66">
          <path
             d="M 6.265625,-5.671875 C 6.75,-6.453125 7.171875,-6.484375 7.53125,-6.5 c 0.125,-0.015625 0.140625,-0.171875 0.140625,-0.1875 0,-0.078125 -0.0625,-0.125 -0.140625,-0.125 -0.25,0 -0.546875,0.03125 -0.8125,0.03125 -0.328125,0 -0.671875,-0.03125 -0.984375,-0.03125 -0.0625,0 -0.1875,0 -0.1875,0.1875 0,0.109375 0.078125,0.125 0.15625,0.125 0.265625,0.015625 0.453125,0.125 0.453125,0.328125 0,0.15625 -0.140625,0.375 -0.140625,0.375 l -3.0625,4.875 -0.6875,-5.28125 C 2.265625,-6.375 2.5,-6.5 2.953125,-6.5 c 0.140625,0 0.25,0 0.25,-0.203125 0,-0.078125 -0.078125,-0.109375 -0.125,-0.109375 -0.40625,0 -0.828125,0.03125 -1.25,0.03125 -0.171875,0 -0.359375,0 -0.546875,0 -0.171875,0 -0.359375,-0.03125 -0.53125,-0.03125 -0.078125,0 -0.1875,0 -0.1875,0.1875 0,0.125 0.078125,0.125 0.25,0.125 0.546875,0 0.5625,0.09375 0.59375,0.34375 L 2.1875,-0.015625 C 2.21875,0.1875 2.265625,0.21875 2.390625,0.21875 c 0.15625,0 0.203125,-0.046875 0.28125,-0.171875 z m 0,0"
             id="id-df9b9722-7c31-432f-bb21-936b3ac64bb2" />
        </g>
      </g>
      <g
         fill="#000000"
         fill-opacity="1"
         id="id-09aad7a6-af1d-4091-b642-fe9eaa995a58"
         transform="translate(-149.275,-124.744)">
        <g
           transform="translate(154.524,136.279)"
           id="g67">
          <path
             d="m 5.78125,-2.96875 c 0,-1.09375 -0.796875,-1.9375 -2.03125,-1.9375 -1.65625,0 -3.265625,1.5625 -3.265625,3.140625 0,1.125 0.828125,1.90625 2.03125,1.90625 1.65625,0 3.265625,-1.515625 3.265625,-3.109375 z m -3.21875,2.875 c -0.734375,0 -1.359375,-0.5 -1.359375,-1.53125 0,-0.359375 0.09375,-1.34375 0.734375,-2.140625 0.46875,-0.5625 1.140625,-0.90625 1.765625,-0.90625 0.71875,0 1.390625,0.453125 1.390625,1.46875 0,0.5 -0.21875,1.53125 -0.859375,2.265625 C 3.75,-0.375 3.109375,-0.09375 2.5625,-0.09375 Z m 0,0"
             id="id-a1eb9974-2dd2-47d0-b2f2-117cd64abb74" />
        </g>
      </g>
      <g
         fill="#000000"
         fill-opacity="1"
         id="id-ce4136f1-bb6b-40d3-b9e7-73720de34c58"
         transform="translate(-149.275,-124.744)">
        <g
           transform="translate(164.064,134.785)"
           id="g68">
          <path
             d="m 7.203125,-4.3125 c 0,-0.21875 -0.078125,-0.296875 -0.140625,-0.296875 -0.046875,0 -0.140625,0.03125 -0.140625,0.265625 C 6.875,-3.515625 6.1875,-3.046875 5.53125,-3.046875 c -0.59375,0 -1.078125,-0.359375 -1.59375,-0.75 C 3.40625,-4.21875 2.875,-4.625 2.21875,-4.625 c -0.984375,0 -1.671875,0.875 -1.671875,1.8125 0,0.296875 0.125,0.3125 0.140625,0.3125 0.109375,0 0.140625,-0.203125 0.140625,-0.234375 C 0.875,-3.703125 1.671875,-4.0625 2.21875,-4.0625 c 0.59375,0 1.078125,0.34375 1.59375,0.75 0.53125,0.40625 1.046875,0.8125 1.71875,0.8125 0.984375,0 1.671875,-0.875 1.671875,-1.8125 z M 0.90625,-0.75 c -0.15625,0 -0.359375,0 -0.359375,0.1875 0,0.203125 0.1875,0.203125 0.34375,0.203125 H 6.84375 c 0.171875,0 0.359375,0 0.359375,-0.203125 0,-0.1875 -0.1875,-0.1875 -0.359375,-0.1875 z m 0,0"
             id="id-923ac864-f8db-45e4-a5a4-3302b04bc3a8" />
        </g>
      </g>
      <g
         fill="#000000"
         fill-opacity="1"
         id="id-adec0dd7-526d-41b3-8986-115fcbd8d942"
         transform="translate(-149.275,-124.744)">
        <g
           transform="translate(174.58,134.785)"
           id="g69">
          <path
             d="M 6.265625,-5.671875 C 6.75,-6.453125 7.171875,-6.484375 7.53125,-6.5 c 0.125,-0.015625 0.140625,-0.171875 0.140625,-0.1875 0,-0.078125 -0.0625,-0.125 -0.140625,-0.125 -0.25,0 -0.546875,0.03125 -0.8125,0.03125 -0.328125,0 -0.671875,-0.03125 -0.984375,-0.03125 -0.0625,0 -0.1875,0 -0.1875,0.1875 0,0.109375 0.078125,0.125 0.15625,0.125 0.265625,0.015625 0.453125,0.125 0.453125,0.328125 0,0.15625 -0.140625,0.375 -0.140625,0.375 l -3.0625,4.875 -0.6875,-5.28125 C 2.265625,-6.375 2.5,-6.5 2.953125,-6.5 c 0.140625,0 0.25,0 0.25,-0.203125 0,-0.078125 -0.078125,-0.109375 -0.125,-0.109375 -0.40625,0 -0.828125,0.03125 -1.25,0.03125 -0.171875,0 -0.359375,0 -0.546875,0 -0.171875,0 -0.359375,-0.03125 -0.53125,-0.03125 -0.078125,0 -0.1875,0 -0.1875,0.1875 0,0.125 0.078125,0.125 0.25,0.125 0.546875,0 0.5625,0.09375 0.59375,0.34375 L 2.1875,-0.015625 C 2.21875,0.1875 2.265625,0.21875 2.390625,0.21875 c 0.15625,0 0.203125,-0.046875 0.28125,-0.171875 z m 0,0"
             id="id-83549a7f-b654-4f68-a42f-85aa924adff8" />
        </g>
      </g>
      <g
         fill="#000000"
         fill-opacity="1"
         id="id-f65a5c2c-d8d1-4d88-83bd-4d0640e76cce"
         transform="translate(-149.275,-124.744)">
        <g
           transform="translate(180.391,136.279)"
           id="g70">
          <path
             d="M 1.8125,-4.65625 C 1.734375,-4.75 1.734375,-4.765625 1.59375,-4.765625 H 0.390625 v 0.25 H 0.59375 c 0.3125,0 0.484375,0.046875 0.515625,0.046875 V -0.75 c 0,0.1875 0,0.5 -0.71875,0.5 V 0 c 0.28125,-0.015625 0.5625,-0.03125 0.84375,-0.03125 C 1.53125,-0.03125 1.8125,-0.015625 2.09375,0 V -0.25 C 1.375,-0.25 1.375,-0.5625 1.375,-0.75 v -3.515625 l 3.09375,4.15625 C 4.53125,0 4.546875,0 4.625,0 4.765625,0 4.765625,-0.0625 4.765625,-0.1875 V -4 c 0,-0.1875 0,-0.515625 0.71875,-0.515625 v -0.25 C 5.1875,-4.734375 4.90625,-4.734375 4.625,-4.734375 c -0.28125,0 -0.5625,0 -0.84375,-0.03125 v 0.25 C 4.5,-4.515625 4.5,-4.1875 4.5,-4 v 2.953125 z m 0,0"
             id="id-95a3d994-7a25-47e6-a240-042d0f8625dd" />
        </g>
      </g>
      <g
         fill="#000000"
         fill-opacity="1"
         id="id-f4942609-c563-40d2-b6f7-7cec1eef699a"
         transform="translate(-149.275,-124.744)">
        <g
           transform="translate(188.984,134.785)"
           id="g71">
          <path
             d="m 6.5625,-2.296875 c 0.171875,0 0.359375,0 0.359375,-0.203125 0,-0.1875 -0.1875,-0.1875 -0.359375,-0.1875 H 1.171875 c -0.171875,0 -0.34375,0 -0.34375,0.1875 0,0.203125 0.171875,0.203125 0.34375,0.203125 z m 0,0"
             id="id-5735d396-fbb9-492f-a006-8086d20446e9" />
        </g>
      </g>
      <g
         fill="#000000"
         fill-opacity="1"
         id="id-07c61a9e-74a7-4179-9e67-f6bfb1bf1f7b"
         transform="translate(-149.275,-124.744)">
        <g
           transform="translate(198.947,134.785)"
           id="g72">
          <path
             d="m 3.734375,-6.125 c 0.0625,-0.234375 0.09375,-0.328125 0.28125,-0.359375 C 4.109375,-6.5 4.421875,-6.5 4.625,-6.5 c 0.703125,0 1.8125,0 1.8125,0.984375 0,0.34375 -0.15625,1.03125 -0.546875,1.421875 -0.265625,0.25 -0.78125,0.578125 -1.6875,0.578125 H 3.09375 Z m 1.4375,2.734375 c 1.015625,-0.21875 2.1875,-0.921875 2.1875,-1.921875 0,-0.859375 -0.890625,-1.5 -2.203125,-1.5 H 2.328125 c -0.203125,0 -0.296875,0 -0.296875,0.203125 C 2.03125,-6.5 2.125,-6.5 2.3125,-6.5 c 0.015625,0 0.203125,0 0.375,0.015625 0.1875,0.03125 0.265625,0.03125 0.265625,0.171875 0,0.03125 0,0.0625 -0.03125,0.1875 l -1.34375,5.34375 C 1.484375,-0.390625 1.46875,-0.3125 0.671875,-0.3125 0.5,-0.3125 0.40625,-0.3125 0.40625,-0.109375 0.40625,0 0.53125,0 0.546875,0 c 0.28125,0 0.984375,-0.03125 1.25,-0.03125 0.28125,0 1,0.03125 1.28125,0.03125 0.078125,0 0.1875,0 0.1875,-0.203125 0,-0.109375 -0.078125,-0.109375 -0.28125,-0.109375 -0.359375,0 -0.640625,0 -0.640625,-0.171875 0,-0.0625 0.015625,-0.109375 0.03125,-0.171875 l 0.65625,-2.640625 h 1.1875 c 0.90625,0 1.078125,0.5625 1.078125,0.90625 0,0.140625 -0.078125,0.453125 -0.140625,0.6875 C 5.09375,-1.421875 5,-1.0625 5,-0.859375 5,0.21875 6.203125,0.21875 6.328125,0.21875 c 0.84375,0 1.203125,-1 1.203125,-1.140625 0,-0.125 -0.109375,-0.125 -0.125,-0.125 -0.09375,0 -0.109375,0.0625 -0.125,0.140625 C 7.03125,-0.171875 6.59375,0 6.375,0 6.046875,0 5.96875,-0.21875 5.96875,-0.609375 c 0,-0.3125 0.0625,-0.8125 0.109375,-1.140625 0.015625,-0.140625 0.03125,-0.328125 0.03125,-0.46875 0,-0.765625 -0.671875,-1.078125 -0.9375,-1.171875 z m 0,0"
             id="id-67c1dfea-34da-4ff4-a47d-912bb1b26a40" />
        </g>
      </g>
      <g
         fill="#000000"
         fill-opacity="1"
         id="id-4cbe9211-caca-4548-81ba-89b6a40adc08"
         transform="translate(-149.275,-124.744)">
        <g
           transform="translate(206.591,134.785)"
           id="g73">
          <path
             d="M 3.734375,-6.046875 C 3.8125,-6.40625 3.84375,-6.5 4.640625,-6.5 c 0.234375,0 0.3125,0 0.3125,-0.1875 0,-0.125 -0.109375,-0.125 -0.140625,-0.125 -0.296875,0 -1.03125,0.03125 -1.328125,0.03125 -0.296875,0 -1.015625,-0.03125 -1.328125,-0.03125 -0.0625,0 -0.1875,0 -0.1875,0.203125 C 1.96875,-6.5 2.046875,-6.5 2.25,-6.5 c 0.40625,0 0.6875,0 0.6875,0.1875 0,0.046875 0,0.078125 -0.03125,0.15625 l -1.34375,5.375 c -0.09375,0.375 -0.109375,0.46875 -0.90625,0.46875 -0.234375,0 -0.3125,0 -0.3125,0.203125 C 0.34375,0 0.453125,0 0.484375,0 0.78125,0 1.5,-0.03125 1.796875,-0.03125 2.09375,-0.03125 2.828125,0 3.125,0 c 0.078125,0 0.203125,0 0.203125,-0.1875 0,-0.125 -0.078125,-0.125 -0.296875,-0.125 -0.1875,0 -0.234375,0 -0.421875,-0.015625 -0.21875,-0.015625 -0.25,-0.0625 -0.25,-0.171875 0,-0.078125 0.015625,-0.15625 0.03125,-0.234375 z m 0,0"
             id="id-ee1cc12b-452c-48e7-a3ac-19b9fc135d25" />
        </g>
      </g>
      <g
         fill="#000000"
         fill-opacity="1"
         id="id-adffdaf1-0ff3-4077-b7f6-310e288e4206"
         transform="translate(-149.275,-124.744)">
        <g
           transform="translate(210.967,136.279)"
           id="g74">
          <path
             d="m 4.953125,-4.8125 c 0,-0.03125 -0.03125,-0.09375 -0.09375,-0.09375 -0.046875,0 -0.046875,0.015625 -0.140625,0.109375 L 4.375,-4.40625 c -0.265625,-0.375 -0.703125,-0.5 -1.125,-0.5 -0.984375,0 -1.859375,0.796875 -1.859375,1.609375 0,0.09375 0.03125,0.375 0.234375,0.640625 0.234375,0.265625 0.5,0.328125 0.96875,0.453125 0.140625,0.03125 0.484375,0.109375 0.59375,0.140625 0.21875,0.046875 0.640625,0.203125 0.640625,0.71875 0,0.5625 -0.59375,1.234375 -1.375,1.234375 -0.625,0 -1.359375,-0.21875 -1.359375,-0.984375 0,-0.078125 0.015625,-0.234375 0.046875,-0.359375 0,-0.03125 0,-0.03125 0,-0.03125 0,-0.09375 -0.078125,-0.09375 -0.109375,-0.09375 -0.09375,0 -0.109375,0.015625 -0.125,0.140625 l -0.359375,1.390625 c -0.015625,0.03125 -0.03125,0.0625 -0.03125,0.109375 0,0.03125 0.03125,0.078125 0.109375,0.078125 0.03125,0 0.046875,-0.015625 0.140625,-0.09375 0.078125,-0.09375 0.25,-0.3125 0.328125,-0.390625 C 1.46875,0.0625 2,0.140625 2.421875,0.140625 c 1.0625,0 1.90625,-0.90625 1.90625,-1.734375 0,-0.296875 -0.125,-0.578125 -0.28125,-0.734375 -0.234375,-0.25 -0.34375,-0.28125 -1.25,-0.5 C 2.65625,-2.859375 2.421875,-2.90625 2.359375,-2.9375 2.1875,-3 1.890625,-3.171875 1.890625,-3.5625 c 0,-0.5625 0.625,-1.109375 1.34375,-1.109375 0.765625,0 1.125,0.421875 1.125,1.078125 0,0.09375 -0.03125,0.25 -0.03125,0.3125 0,0.109375 0.078125,0.109375 0.125,0.109375 0.09375,0 0.109375,-0.046875 0.125,-0.15625 z m 0,0"
             id="id-c2c1ff3c-fabe-42e4-9a63-51a20a118c8c" />
        </g>
      </g>
      <g
         fill="#000000"
         fill-opacity="1"
         id="id-6684be58-864f-4e2e-be40-e849a2dd4190"
         transform="translate(-149.275,-124.744)">
        <g
           transform="translate(216.739,134.785)"
           id="g75">
          <path
             d="m 1.859375,-2.296875 c 0.296875,0 1.03125,-0.03125 1.53125,-0.234375 0.703125,-0.296875 0.75,-0.890625 0.75,-1.03125 0,-0.4375 -0.375,-0.84375 -1.0625,-0.84375 -1.109375,0 -2.625,0.96875 -2.625,2.71875 0,1.015625 0.59375,1.796875 1.578125,1.796875 1.421875,0 2.25,-1.0625 2.25,-1.171875 0,-0.0625 -0.046875,-0.140625 -0.109375,-0.140625 -0.0625,0 -0.078125,0.03125 -0.140625,0.109375 -0.78125,0.984375 -1.875,0.984375 -1.984375,0.984375 -0.78125,0 -0.875,-0.84375 -0.875,-1.15625 0,-0.125 0.015625,-0.421875 0.15625,-1.03125 z m -0.46875,-0.21875 C 1.78125,-4.03125 2.8125,-4.1875 3.078125,-4.1875 c 0.453125,0 0.734375,0.296875 0.734375,0.625 0,1.046875 -1.59375,1.046875 -2.015625,1.046875 z m 0,0"
             id="id-22c686e7-108e-4fcf-91b4-9157c5ae212d" />
        </g>
      </g>
      <g
         fill="#000000"
         fill-opacity="1"
         id="id-686d565e-35ff-4e96-a3f2-40f63f8f1f64"
         transform="translate(-149.275,-124.744)">
        <g
           transform="translate(225.418,126.947)"
           id="g76">
          <path
             d="m 3.09375,-1.953125 c -0.234375,0.0625 -0.234375,0.28125 -0.234375,0.296875 0,0.078125 0.0625,0.203125 0.234375,0.203125 0.140625,0 0.3125,-0.125 0.3125,-0.34375 0,-0.296875 -0.328125,-0.40625 -0.59375,-0.40625 -0.328125,0 -0.546875,0.203125 -0.640625,0.34375 -0.15625,-0.28125 -0.484375,-0.34375 -0.65625,-0.34375 -0.625,0 -0.984375,0.59375 -0.984375,0.765625 0,0.078125 0.078125,0.078125 0.109375,0.078125 0.046875,0 0.078125,0 0.109375,-0.0625 0.140625,-0.484375 0.546875,-0.609375 0.734375,-0.609375 0.171875,0 0.359375,0.0625 0.359375,0.328125 0,0.125 -0.09375,0.46875 -0.265625,1.140625 -0.0625,0.28125 -0.296875,0.453125 -0.515625,0.453125 -0.03125,0 -0.171875,0 -0.296875,-0.078125 0.21875,-0.09375 0.21875,-0.28125 0.21875,-0.296875 0,-0.140625 -0.109375,-0.203125 -0.21875,-0.203125 -0.125,0 -0.296875,0.09375 -0.296875,0.328125 0,0.3125 0.328125,0.421875 0.59375,0.421875 0.265625,0 0.5,-0.171875 0.609375,-0.34375 C 1.875,0.015625 2.1875,0.0625 2.34375,0.0625 c 0.625,0 0.984375,-0.59375 0.984375,-0.78125 0,-0.0625 -0.078125,-0.0625 -0.109375,-0.0625 -0.078125,0 -0.09375,0.03125 -0.109375,0.0625 C 2.96875,-0.265625 2.59375,-0.109375 2.375,-0.109375 c -0.15625,0 -0.359375,-0.0625 -0.359375,-0.34375 0,-0.0625 0,-0.09375 0.03125,-0.265625 0.09375,-0.34375 0.21875,-0.890625 0.265625,-0.984375 0.0625,-0.125 0.234375,-0.328125 0.484375,-0.328125 0.015625,0 0.1875,0 0.296875,0.078125 z m 0,0"
             id="id-ee3c2e81-2861-4ce9-a0ed-9f40c3395874" />
        </g>
      </g>
      <path
         fill="none"
         stroke-width="0.339"
         stroke-linecap="butt"
         stroke-linejoin="miter"
         stroke="#000000"
         stroke-opacity="1"
         stroke-miterlimit="10"
         d="m 73.299713,3.1389389 h 9.628906"
         id="id-31dc0fef-3a6e-4541-829f-e7de34fe1516" />
      <g
         fill="#000000"
         fill-opacity="1"
         id="id-0373d81b-b2f9-401f-b732-0186942be530"
         transform="translate(-149.275,-124.744)">
        <g
           transform="translate(222.573,132.024)"
           id="g77">
          <path
             d="m 4.1875,-2.78125 c 0.046875,-0.046875 0.046875,-0.0625 0.109375,-0.125 0.078125,-0.109375 0.234375,-0.25 0.546875,-0.28125 0.0625,0 0.140625,0 0.140625,-0.125 0,-0.03125 -0.015625,-0.09375 -0.078125,-0.09375 -0.078125,0 -0.15625,0.015625 -0.21875,0.015625 -0.078125,0 -0.15625,0 -0.234375,0 -0.09375,0 -0.1875,0 -0.28125,0 -0.078125,0 -0.1875,-0.015625 -0.28125,-0.015625 -0.078125,0 -0.125,0.0625 -0.125,0.140625 0,0.078125 0.09375,0.078125 0.125,0.078125 0.078125,0.015625 0.203125,0.03125 0.203125,0.125 0,0.046875 -0.015625,0.109375 -0.09375,0.203125 L 2.25,-0.46875 1.671875,-3 c 0,-0.0625 0,-0.0625 0,-0.078125 0,-0.078125 0.15625,-0.109375 0.328125,-0.109375 0.0625,0 0.140625,0 0.140625,-0.125 0,-0.046875 -0.015625,-0.09375 -0.078125,-0.09375 -0.109375,0 -0.234375,0.015625 -0.34375,0.015625 -0.109375,0 -0.234375,0 -0.34375,0 -0.109375,0 -0.21875,0 -0.328125,0 -0.09375,0 -0.203125,-0.015625 -0.296875,-0.015625 -0.03125,0 -0.109375,0 -0.109375,0.140625 0,0.078125 0.0625,0.078125 0.15625,0.078125 0.296875,0 0.296875,0.046875 0.328125,0.140625 l 0.671875,3.015625 c 0.03125,0.09375 0.046875,0.140625 0.171875,0.140625 0.0625,0 0.125,0 0.203125,-0.109375 z m 0,0"
             id="id-828d6009-f9e4-4a96-abdc-a8c9b8a700d6" />
        </g>
      </g>
      <g
         fill="#000000"
         fill-opacity="1"
         id="id-db9fb8d2-b1e1-4f25-b3f0-ffd3ca2c8394"
         transform="translate(-149.275,-124.744)">
        <g
           transform="translate(226.697,133.713)"
           id="g78">
          <path
             d="M 2.890625,-2.96875 C 2.9375,-3.125 2.9375,-3.140625 3.140625,-3.140625 h 0.53125 c 0.5625,0 0.640625,0.15625 0.640625,0.46875 0,0.03125 0,0.125 -0.046875,0.359375 v 0.046875 c 0,0.046875 0.03125,0.09375 0.109375,0.09375 0.09375,0 0.09375,-0.046875 0.109375,-0.140625 l 0.125,-0.890625 C 4.625,-3.25 4.625,-3.265625 4.625,-3.28125 4.625,-3.359375 4.546875,-3.359375 4.453125,-3.359375 H 0.96875 c -0.140625,0 -0.140625,0 -0.1875,0.09375 L 0.453125,-2.34375 c 0,0.015625 -0.03125,0.078125 -0.03125,0.078125 0,0.03125 0.03125,0.09375 0.109375,0.09375 0.078125,0 0.09375,-0.015625 0.125,-0.140625 0.234375,-0.59375 0.375,-0.828125 1.046875,-0.828125 H 2.25 c 0.03125,0 0.109375,0 0.15625,0.015625 v 0.03125 L 1.734375,-0.4375 C 1.703125,-0.28125 1.6875,-0.21875 1.15625,-0.21875 H 1.046875 c -0.09375,0 -0.109375,0 -0.125,0.015625 C 0.890625,-0.171875 0.875,-0.125 0.875,-0.078125 0.875,-0.0625 0.890625,0 0.96875,0 1.125,0 1.28125,-0.015625 1.4375,-0.015625 c 0.140625,0 0.296875,0 0.453125,0 0.15625,0 0.328125,0 0.484375,0 C 2.53125,-0.015625 2.6875,0 2.84375,0 2.875,0 2.96875,0 2.96875,-0.140625 2.96875,-0.21875 2.890625,-0.21875 2.8125,-0.21875 H 2.703125 c -0.140625,0 -0.265625,0 -0.40625,-0.03125 -0.03125,0 -0.0625,-0.015625 -0.0625,-0.0625 0,-0.03125 0,-0.03125 0.015625,-0.109375 z m 0,0"
             id="id-cda98f29-e7ea-4562-b151-d42739964301" />
        </g>
      </g>
      <g
         fill="#000000"
         fill-opacity="1"
         id="id-af5a62c3-e39e-4682-a81e-758f3cc42f43"
         transform="translate(-149.275,-124.744)">
        <g
           transform="translate(236.667,134.785)"
           id="g79">
          <path
             d="m 6.84375,-3.265625 c 0.15625,0 0.34375,0 0.34375,-0.1875 C 7.1875,-3.65625 7,-3.65625 6.859375,-3.65625 h -5.96875 c -0.140625,0 -0.328125,0 -0.328125,0.203125 0,0.1875 0.1875,0.1875 0.328125,0.1875 z m 0.015625,1.9375 c 0.140625,0 0.328125,0 0.328125,-0.203125 0,-0.1875 -0.1875,-0.1875 -0.34375,-0.1875 H 0.890625 c -0.140625,0 -0.328125,0 -0.328125,0.1875 0,0.203125 0.1875,0.203125 0.328125,0.203125 z m 0,0"
             id="id-a7446ad4-e843-4417-8b54-b69b8d0a3062" />
        </g>
      </g>
      <g
         fill="#000000"
         fill-opacity="1"
         id="id-c8b755b2-a507-460f-be31-9b3afa089d6b"
         transform="translate(-149.275,-124.744)">
        <g
           transform="translate(247.183,134.785)"
           id="g80">
          <path
             d="m 5.140625,-6.8125 c 0,0 0,-0.109375 -0.125,-0.109375 -0.15625,0 -1.09375,0.09375 -1.265625,0.109375 -0.078125,0.015625 -0.140625,0.0625 -0.140625,0.1875 0,0.125 0.09375,0.125 0.234375,0.125 0.484375,0 0.5,0.0625 0.5,0.171875 L 4.3125,-6.125 3.71875,-3.765625 C 3.53125,-4.140625 3.25,-4.40625 2.796875,-4.40625 c -1.15625,0 -2.390625,1.46875 -2.390625,2.921875 0,0.9375 0.546875,1.59375 1.3125,1.59375 0.203125,0 0.703125,-0.046875 1.296875,-0.75 0.078125,0.421875 0.4375,0.75 0.90625,0.75 0.359375,0 0.578125,-0.234375 0.75,-0.546875 0.15625,-0.359375 0.296875,-0.96875 0.296875,-0.984375 0,-0.109375 -0.09375,-0.109375 -0.125,-0.109375 -0.09375,0 -0.109375,0.046875 -0.140625,0.1875 -0.171875,0.640625 -0.34375,1.234375 -0.75,1.234375 -0.28125,0 -0.296875,-0.265625 -0.296875,-0.453125 0,-0.25 0.015625,-0.3125 0.046875,-0.484375 z m -2.0625,5.625 C 3.015625,-1 3.015625,-0.984375 2.875,-0.8125 2.4375,-0.265625 2.03125,-0.109375 1.75,-0.109375 c -0.5,0 -0.640625,-0.546875 -0.640625,-0.9375 0,-0.5 0.3125,-1.71875 0.546875,-2.1875 0.3125,-0.578125 0.75,-0.953125 1.15625,-0.953125 0.640625,0 0.78125,0.8125 0.78125,0.875 0,0.0625 -0.015625,0.125 -0.03125,0.171875 z m 0,0"
             id="id-1957e417-db60-4cc7-a06d-8a7852d13277" />
        </g>
      </g>
      <g
         fill="#000000"
         fill-opacity="1"
         id="id-f2b2f3cb-2087-4ea0-83e2-c5888b240110"
         transform="translate(-149.275,-124.744)">
        <g
           transform="translate(254.582,134.785)"
           id="g81">
          <path
             d="m 6.5625,-2.296875 c 0.171875,0 0.359375,0 0.359375,-0.203125 0,-0.1875 -0.1875,-0.1875 -0.359375,-0.1875 H 1.171875 c -0.171875,0 -0.34375,0 -0.34375,0.1875 0,0.203125 0.171875,0.203125 0.34375,0.203125 z m 0,0"
             id="id-683be685-5251-4b97-b952-61beec20d579" />
        </g>
      </g>
      <g
         fill="#000000"
         fill-opacity="1"
         id="id-f6bdf9d2-6f5e-46d2-ae60-1d47538fc567"
         transform="translate(-149.275,-124.744)">
        <g
           transform="translate(264.545,134.785)"
           id="g82">
          <path
             d="m 1.859375,-2.296875 c 0.296875,0 1.03125,-0.03125 1.53125,-0.234375 0.703125,-0.296875 0.75,-0.890625 0.75,-1.03125 0,-0.4375 -0.375,-0.84375 -1.0625,-0.84375 -1.109375,0 -2.625,0.96875 -2.625,2.71875 0,1.015625 0.59375,1.796875 1.578125,1.796875 1.421875,0 2.25,-1.0625 2.25,-1.171875 0,-0.0625 -0.046875,-0.140625 -0.109375,-0.140625 -0.0625,0 -0.078125,0.03125 -0.140625,0.109375 -0.78125,0.984375 -1.875,0.984375 -1.984375,0.984375 -0.78125,0 -0.875,-0.84375 -0.875,-1.15625 0,-0.125 0.015625,-0.421875 0.15625,-1.03125 z m -0.46875,-0.21875 C 1.78125,-4.03125 2.8125,-4.1875 3.078125,-4.1875 c 0.453125,0 0.734375,0.296875 0.734375,0.625 0,1.046875 -1.59375,1.046875 -2.015625,1.046875 z m 0,0"
             id="id-838b2a54-60f4-47fa-870e-6e32e587e193" />
        </g>
      </g>
      <g
         fill="#000000"
         fill-opacity="1"
         id="id-0dbfdbfb-8ea6-4380-9599-f7920719507b"
         transform="translate(-149.275,-124.744)">
        <g
           transform="translate(271.397,134.785)"
           id="g83">
          <path
             d="m 1.90625,-2.5 c 0,-0.28125 -0.234375,-0.515625 -0.515625,-0.515625 -0.296875,0 -0.53125,0.234375 -0.53125,0.515625 0,0.296875 0.234375,0.53125 0.53125,0.53125 0.28125,0 0.515625,-0.234375 0.515625,-0.53125 z m 0,0"
             id="id-9b264413-1ab6-425f-bda6-2519db483128" />
        </g>
      </g>
      <g
         fill="#000000"
         fill-opacity="1"
         id="id-85e4d7b4-9a2a-474a-a68a-d68ef7c06fb7"
         transform="translate(-149.275,-124.744)">
        <g
           transform="translate(276.379,134.785)"
           id="g84">
          <path
             d="m 1.859375,-2.296875 c 0.296875,0 1.03125,-0.03125 1.53125,-0.234375 0.703125,-0.296875 0.75,-0.890625 0.75,-1.03125 0,-0.4375 -0.375,-0.84375 -1.0625,-0.84375 -1.109375,0 -2.625,0.96875 -2.625,2.71875 0,1.015625 0.59375,1.796875 1.578125,1.796875 1.421875,0 2.25,-1.0625 2.25,-1.171875 0,-0.0625 -0.046875,-0.140625 -0.109375,-0.140625 -0.0625,0 -0.078125,0.03125 -0.140625,0.109375 -0.78125,0.984375 -1.875,0.984375 -1.984375,0.984375 -0.78125,0 -0.875,-0.84375 -0.875,-1.15625 0,-0.125 0.015625,-0.421875 0.15625,-1.03125 z m -0.46875,-0.21875 C 1.78125,-4.03125 2.8125,-4.1875 3.078125,-4.1875 c 0.453125,0 0.734375,0.296875 0.734375,0.625 0,1.046875 -1.59375,1.046875 -2.015625,1.046875 z m 0,0"
             id="id-805bc98d-2d9c-488a-851c-233cafdfa198" />
        </g>
      </g>
      <g
         fill="#000000"
         fill-opacity="1"
         id="id-d62d8b88-d508-41ea-a658-784a1c26d8c5"
         transform="translate(-149.275,-124.744)">
        <g
           transform="translate(281.018,131.17)"
           id="g85">
          <path
             d="M 2.84375,-2.75 H 3.515625 C 3.65625,-2.75 3.75,-2.75 3.75,-2.90625 3.75,-3 3.65625,-3 3.53125,-3 H 2.890625 c 0.15625,-0.890625 0.203125,-1.203125 0.265625,-1.40625 0.03125,-0.15625 0.1875,-0.296875 0.359375,-0.296875 0,0 0.1875,0 0.328125,0.078125 -0.296875,0.09375 -0.3125,0.34375 -0.3125,0.375 0,0.15625 0.125,0.265625 0.28125,0.265625 0.1875,0 0.390625,-0.15625 0.390625,-0.421875 0,-0.328125 -0.328125,-0.5 -0.6875,-0.5 -0.3125,0 -0.65625,0.171875 -0.84375,0.515625 C 2.53125,-4.125 2.484375,-3.8125 2.328125,-3 H 1.78125 c -0.140625,0 -0.234375,0 -0.234375,0.15625 0,0.09375 0.09375,0.09375 0.21875,0.09375 H 2.28125 c 0,0.046875 -0.4375,2.546875 -0.609375,3.296875 -0.03125,0.15625 -0.15625,0.671875 -0.484375,0.671875 -0.015625,0 -0.171875,0 -0.3125,-0.078125 0.28125,-0.09375 0.3125,-0.34375 0.3125,-0.375 C 1.1875,0.609375 1.0625,0.5 0.90625,0.5 c -0.1875,0 -0.390625,0.15625 -0.390625,0.421875 0,0.3125 0.328125,0.5 0.671875,0.5 0.4375,0 0.75,-0.453125 0.828125,-0.609375 0.25,-0.46875 0.421875,-1.328125 0.4375,-1.40625 z m 0,0"
             id="id-5c948c58-9af0-4a68-bde2-9fa3f27cb2c9" />
        </g>
      </g>
      <g
         fill="#000000"
         fill-opacity="1"
         id="id-584cf54f-3a5a-4de4-95f7-e0e3521a2679"
         transform="translate(-149.275,-124.744)">
        <g
           transform="translate(285.684,131.17)"
           id="g86">
          <path
             d="M 1.578125,-1.734375 C 1.578125,-2 1.375,-2.140625 1.1875,-2.140625 c -0.234375,0 -0.40625,0.1875 -0.40625,0.390625 0,0.25 0.203125,0.40625 0.390625,0.40625 0.234375,0 0.40625,-0.1875 0.40625,-0.390625 z m 0,0"
             id="id-f0acb482-1088-4492-8547-085d745da5f7" />
        </g>
      </g>
      <g
         fill="#000000"
         fill-opacity="1"
         id="id-4c99ce62-ec79-48bb-96ac-5074c0340f30"
         transform="translate(-149.275,-124.744)">
        <g
           transform="translate(288.05,131.17)"
           id="g87">
          <path
             d="M 1.734375,-0.734375 C 1.671875,-0.5 1.4375,-0.125 1.078125,-0.125 c -0.015625,0 -0.234375,0 -0.375,-0.09375 0.28125,-0.09375 0.3125,-0.34375 0.3125,-0.390625 0,-0.15625 -0.125,-0.25 -0.28125,-0.25 -0.203125,0 -0.40625,0.15625 -0.40625,0.421875 0,0.34375 0.390625,0.5 0.734375,0.5 0.328125,0 0.609375,-0.1875 0.78125,-0.484375 C 2.015625,-0.0625 2.390625,0.0625 2.671875,0.0625 c 0.8125,0 1.234375,-0.859375 1.234375,-1.0625 0,-0.09375 -0.09375,-0.09375 -0.109375,-0.09375 -0.109375,0 -0.109375,0.046875 -0.140625,0.125 -0.140625,0.484375 -0.5625,0.84375 -0.953125,0.84375 -0.28125,0 -0.421875,-0.1875 -0.421875,-0.453125 0,-0.1875 0.171875,-0.8125 0.359375,-1.59375 C 2.78125,-2.703125 3.09375,-2.875 3.328125,-2.875 c 0.015625,0 0.21875,0 0.375,0.09375 -0.21875,0.0625 -0.3125,0.265625 -0.3125,0.390625 0,0.140625 0.125,0.25 0.28125,0.25 0.15625,0 0.390625,-0.125 0.390625,-0.421875 0,-0.390625 -0.453125,-0.515625 -0.71875,-0.515625 -0.359375,0 -0.640625,0.234375 -0.78125,0.5 -0.125,-0.28125 -0.453125,-0.5 -0.84375,-0.5 C 0.9375,-3.078125 0.5,-2.21875 0.5,-2 c 0,0.078125 0.09375,0.078125 0.109375,0.078125 0.09375,0 0.09375,-0.015625 0.140625,-0.109375 C 0.921875,-2.578125 1.359375,-2.875 1.703125,-2.875 1.9375,-2.875 2.125,-2.75 2.125,-2.421875 2.125,-2.28125 2.03125,-1.9375 1.96875,-1.6875 Z m 0,0"
             id="id-7092263f-7454-4d13-ac2d-53e0c748824d" />
        </g>
      </g>
    </g>
  </g>
</svg>
