<?xml version="1.0" encoding="UTF-8" standalone="no"?>
<!-- Created with Inkscape (http://www.inkscape.org/) -->

<svg
   width="49.177166mm"
   height="6.3279572mm"
   viewBox="0 0 49.177166 6.3279572"
   version="1.1"
   id="svg1"
   xmlns:inkscape="http://www.inkscape.org/namespaces/inkscape"
   xmlns:sodipodi="http://sodipodi.sourceforge.net/DTD/sodipodi-0.dtd"
   xmlns="http://www.w3.org/2000/svg"
   xmlns:svg="http://www.w3.org/2000/svg"
   xmlns:ns18="http://www.iki.fi/pav/software/textext/">
  <sodipodi:namedview
     id="namedview1"
     pagecolor="#ffffff"
     bordercolor="#000000"
     borderopacity="0.25"
     inkscape:showpageshadow="2"
     inkscape:pageopacity="0.0"
     inkscape:pagecheckerboard="0"
     inkscape:deskcolor="#d1d1d1"
     inkscape:document-units="mm"
     inkscape:zoom="2.0535659"
     inkscape:cx="299.96603"
     inkscape:cy="190.644"
     inkscape:window-width="1920"
     inkscape:window-height="1017"
     inkscape:window-x="-8"
     inkscape:window-y="-8"
     inkscape:window-maximized="1"
     inkscape:current-layer="layer1">
    <inkscape:page
       x="0"
       y="0"
       width="49.177166"
       height="6.3279572"
       id="page2"
       margin="0"
       bleed="0" />
  </sodipodi:namedview>
  <defs
     id="defs1" />
  <g
     inkscape:label="Capa 1"
     inkscape:groupmode="layer"
     id="layer1"
     transform="translate(-54.77721,-47.277413)">
    <g
       transform="matrix(0.352778,0,0,0.352778,54.7773,47.2775)"
       ns18:version="1.10.2"
       ns18:texconverter="pdflatex"
       ns18:pdfconverter="inkscape"
       ns18:text="\\[\nI_D = I_S\\left(e^{\\frac{x}{V_T}} - 1\\right) = a - b\\cdot e^{c\\cdot x}\n\\]"
       ns18:preamble="C:\Users\JosePedro\AppData\Roaming\inkscape\extensions\circuitSymbols\circuitSymbolsPreamble.tex"
       ns18:scale="1.0"
       ns18:alignment="middle center"
       ns18:stroke-to-path="0"
       ns18:jacobian_sqrt="0.352778"
       id="g41">
      <defs
         id="id-5231548a-5fc8-4d7f-9a4a-c23098dc54c8" />
      <g
         fill="#000000"
         fill-opacity="1"
         id="id-5b5fd1a7-786d-4ce8-bbf7-028a2934184b"
         transform="translate(-235.619,-135.255)">
        <g
           transform="translate(235.275,146.72)"
           id="g19">
          <path
             d="M 3.734375,-6.046875 C 3.8125,-6.40625 3.84375,-6.5 4.640625,-6.5 c 0.234375,0 0.3125,0 0.3125,-0.1875 0,-0.125 -0.109375,-0.125 -0.140625,-0.125 -0.296875,0 -1.03125,0.03125 -1.328125,0.03125 -0.296875,0 -1.015625,-0.03125 -1.328125,-0.03125 -0.0625,0 -0.1875,0 -0.1875,0.203125 C 1.96875,-6.5 2.046875,-6.5 2.25,-6.5 c 0.40625,0 0.6875,0 0.6875,0.1875 0,0.046875 0,0.078125 -0.03125,0.15625 l -1.34375,5.375 c -0.09375,0.375 -0.109375,0.46875 -0.90625,0.46875 -0.234375,0 -0.3125,0 -0.3125,0.203125 C 0.34375,0 0.453125,0 0.484375,0 0.78125,0 1.5,-0.03125 1.796875,-0.03125 2.09375,-0.03125 2.828125,0 3.125,0 c 0.078125,0 0.203125,0 0.203125,-0.1875 0,-0.125 -0.078125,-0.125 -0.296875,-0.125 -0.1875,0 -0.234375,0 -0.421875,-0.015625 -0.21875,-0.015625 -0.25,-0.0625 -0.25,-0.171875 0,-0.078125 0.015625,-0.15625 0.03125,-0.234375 z m 0,0"
             id="id-47a0798f-cb23-4331-b5f1-c31a3ae389dc" />
        </g>
      </g>
      <g
         fill="#000000"
         fill-opacity="1"
         id="id-698bb206-0d96-4070-8189-db4b5188198d"
         transform="translate(-235.619,-135.255)">
        <g
           transform="translate(239.655,148.214)"
           id="g20">
          <path
             d="M 1.3125,-0.546875 C 1.265625,-0.3125 1.25,-0.25 0.703125,-0.25 0.578125,-0.25 0.5,-0.25 0.5,-0.09375 0.5,0 0.578125,0 0.703125,0 H 3.1875 c 1.546875,0 3.03125,-1.421875 3.03125,-2.9375 0,-1.015625 -0.703125,-1.828125 -1.828125,-1.828125 H 1.84375 c -0.140625,0 -0.21875,0 -0.21875,0.15625 0,0.09375 0.078125,0.09375 0.234375,0.09375 0.109375,0 0.140625,0 0.265625,0.015625 0.140625,0.015625 0.140625,0.03125 0.140625,0.109375 0,0 0,0.046875 -0.015625,0.140625 z m 1.5625,-3.71875 c 0.0625,-0.21875 0.0625,-0.25 0.359375,-0.25 H 4.125 c 0.78125,0 1.4375,0.390625 1.4375,1.34375 0,0.15625 -0.078125,1.359375 -0.765625,2.15625 C 4.515625,-0.703125 3.921875,-0.25 3.0625,-0.25 H 2.125 c -0.21875,0 -0.234375,-0.015625 -0.234375,-0.078125 0,0 0,-0.03125 0.03125,-0.140625 z m 0,0"
             id="id-645bd5ce-1b9e-49cd-87e6-0b99e22f7c66" />
        </g>
      </g>
      <g
         fill="#000000"
         fill-opacity="1"
         id="id-5245ee1b-7ca3-49f5-8ddf-6b55f3446a36"
         transform="translate(-235.619,-135.255)">
        <g
           transform="translate(249.649,146.72)"
           id="g21">
          <path
             d="m 6.84375,-3.265625 c 0.15625,0 0.34375,0 0.34375,-0.1875 C 7.1875,-3.65625 7,-3.65625 6.859375,-3.65625 h -5.96875 c -0.140625,0 -0.328125,0 -0.328125,0.203125 0,0.1875 0.1875,0.1875 0.328125,0.1875 z m 0.015625,1.9375 c 0.140625,0 0.328125,0 0.328125,-0.203125 0,-0.1875 -0.1875,-0.1875 -0.34375,-0.1875 H 0.890625 c -0.140625,0 -0.328125,0 -0.328125,0.1875 0,0.203125 0.1875,0.203125 0.328125,0.203125 z m 0,0"
             id="id-83c795ff-4ab6-4d98-9991-a0d2584fa45e" />
        </g>
      </g>
      <g
         fill="#000000"
         fill-opacity="1"
         id="id-a0dcfa23-3500-4127-a6b9-420c3f6e79b1"
         transform="translate(-235.619,-135.255)">
        <g
           transform="translate(260.168,146.72)"
           id="g22">
          <path
             d="M 3.734375,-6.046875 C 3.8125,-6.40625 3.84375,-6.5 4.640625,-6.5 c 0.234375,0 0.3125,0 0.3125,-0.1875 0,-0.125 -0.109375,-0.125 -0.140625,-0.125 -0.296875,0 -1.03125,0.03125 -1.328125,0.03125 -0.296875,0 -1.015625,-0.03125 -1.328125,-0.03125 -0.0625,0 -0.1875,0 -0.1875,0.203125 C 1.96875,-6.5 2.046875,-6.5 2.25,-6.5 c 0.40625,0 0.6875,0 0.6875,0.1875 0,0.046875 0,0.078125 -0.03125,0.15625 l -1.34375,5.375 c -0.09375,0.375 -0.109375,0.46875 -0.90625,0.46875 -0.234375,0 -0.3125,0 -0.3125,0.203125 C 0.34375,0 0.453125,0 0.484375,0 0.78125,0 1.5,-0.03125 1.796875,-0.03125 2.09375,-0.03125 2.828125,0 3.125,0 c 0.078125,0 0.203125,0 0.203125,-0.1875 0,-0.125 -0.078125,-0.125 -0.296875,-0.125 -0.1875,0 -0.234375,0 -0.421875,-0.015625 -0.21875,-0.015625 -0.25,-0.0625 -0.25,-0.171875 0,-0.078125 0.015625,-0.15625 0.03125,-0.234375 z m 0,0"
             id="id-11f5f576-02e4-4353-afb0-6826a2a517d4" />
        </g>
      </g>
      <g
         fill="#000000"
         fill-opacity="1"
         id="id-b54b78f2-7ddb-4730-ac13-d209b4793c35"
         transform="translate(-235.619,-135.255)">
        <g
           transform="translate(264.544,148.214)"
           id="g23">
          <path
             d="m 4.953125,-4.8125 c 0,-0.03125 -0.03125,-0.09375 -0.09375,-0.09375 -0.046875,0 -0.046875,0.015625 -0.140625,0.109375 L 4.375,-4.40625 c -0.265625,-0.375 -0.703125,-0.5 -1.125,-0.5 -0.984375,0 -1.859375,0.796875 -1.859375,1.609375 0,0.09375 0.03125,0.375 0.234375,0.640625 0.234375,0.265625 0.5,0.328125 0.96875,0.453125 0.140625,0.03125 0.484375,0.109375 0.59375,0.140625 0.21875,0.046875 0.640625,0.203125 0.640625,0.71875 0,0.5625 -0.59375,1.234375 -1.375,1.234375 -0.625,0 -1.359375,-0.21875 -1.359375,-0.984375 0,-0.078125 0.015625,-0.234375 0.046875,-0.359375 0,-0.03125 0,-0.03125 0,-0.03125 0,-0.09375 -0.078125,-0.09375 -0.109375,-0.09375 -0.09375,0 -0.109375,0.015625 -0.125,0.140625 l -0.359375,1.390625 c -0.015625,0.03125 -0.03125,0.0625 -0.03125,0.109375 0,0.03125 0.03125,0.078125 0.109375,0.078125 0.03125,0 0.046875,-0.015625 0.140625,-0.09375 0.078125,-0.09375 0.25,-0.3125 0.328125,-0.390625 C 1.46875,0.0625 2,0.140625 2.421875,0.140625 c 1.0625,0 1.90625,-0.90625 1.90625,-1.734375 0,-0.296875 -0.125,-0.578125 -0.28125,-0.734375 -0.234375,-0.25 -0.34375,-0.28125 -1.25,-0.5 C 2.65625,-2.859375 2.421875,-2.90625 2.359375,-2.9375 2.1875,-3 1.890625,-3.171875 1.890625,-3.5625 c 0,-0.5625 0.625,-1.109375 1.34375,-1.109375 0.765625,0 1.125,0.421875 1.125,1.078125 0,0.09375 -0.03125,0.25 -0.03125,0.3125 0,0.109375 0.078125,0.109375 0.125,0.109375 0.09375,0 0.109375,-0.046875 0.125,-0.15625 z m 0,0"
             id="id-f44c673a-a9a4-4a6f-bd4b-16774a6be594" />
        </g>
      </g>
      <g
         fill="#000000"
         fill-opacity="1"
         id="id-fc7309fd-f1a8-4550-aa17-4a4a0dbeaab2"
         transform="translate(-235.619,-135.255)">
        <g
           transform="translate(271.976,135.661)"
           id="g24">
          <path
             d="M 5.140625,17.421875 C 5.15625,17.4375 5.25,17.53125 5.25,17.53125 h 0.21875 c 0.03125,0 0.109375,0 0.109375,-0.09375 0,-0.04687 -0.015625,-0.0625 -0.03125,-0.09375 -0.359375,-0.359375 -0.90625,-0.90625 -1.515625,-2 -1.078125,-1.921875 -1.484375,-4.375 -1.484375,-6.765625 0,-4.4375 1.265625,-7.03125 3,-8.796875 0.03125,-0.03125 0.03125,-0.0625 0.03125,-0.078125 0,-0.109375 -0.0625,-0.109375 -0.1875,-0.109375 -0.125,0 -0.140625,0 -0.234375,0.09375 C 4.203125,0.5 3.140625,1.890625 2.453125,3.984375 2.03125,5.296875 1.796875,6.90625 1.796875,8.5625 c 0,2.359375 0.421875,5.03125 1.984375,7.34375 0.28125,0.390625 0.640625,0.796875 0.640625,0.8125 C 4.53125,16.84375 4.671875,17 4.75,17.0625 Z m 0,0"
             id="id-2774e4a0-01e8-4c3b-988b-1c5ced6073f2" />
        </g>
      </g>
      <g
         fill="#000000"
         fill-opacity="1"
         id="id-d212238c-09aa-4989-9b9f-6dee2b384132"
         transform="translate(-235.619,-135.255)">
        <g
           transform="translate(277.926,146.72)"
           id="g25">
          <path
             d="m 1.859375,-2.296875 c 0.296875,0 1.03125,-0.03125 1.53125,-0.234375 0.703125,-0.296875 0.75,-0.890625 0.75,-1.03125 0,-0.4375 -0.375,-0.84375 -1.0625,-0.84375 -1.109375,0 -2.625,0.96875 -2.625,2.71875 0,1.015625 0.59375,1.796875 1.578125,1.796875 1.421875,0 2.25,-1.0625 2.25,-1.171875 0,-0.0625 -0.046875,-0.140625 -0.109375,-0.140625 -0.0625,0 -0.078125,0.03125 -0.140625,0.109375 -0.78125,0.984375 -1.875,0.984375 -1.984375,0.984375 -0.78125,0 -0.875,-0.84375 -0.875,-1.15625 0,-0.125 0.015625,-0.421875 0.15625,-1.03125 z m -0.46875,-0.21875 C 1.78125,-4.03125 2.8125,-4.1875 3.078125,-4.1875 c 0.453125,0 0.734375,0.296875 0.734375,0.625 0,1.046875 -1.59375,1.046875 -2.015625,1.046875 z m 0,0"
             id="id-163f4eed-d648-49ba-a97f-6877e49bd49f" />
        </g>
      </g>
      <g
         fill="#000000"
         fill-opacity="1"
         id="id-84126e15-c9e6-44d5-9b4c-177053d79696"
         transform="translate(-235.619,-135.255)">
        <g
           transform="translate(286.605,138.882)"
           id="g26">
          <path
             d="m 3.09375,-1.953125 c -0.234375,0.0625 -0.234375,0.28125 -0.234375,0.296875 0,0.078125 0.0625,0.203125 0.234375,0.203125 0.140625,0 0.3125,-0.125 0.3125,-0.34375 0,-0.296875 -0.328125,-0.40625 -0.59375,-0.40625 -0.328125,0 -0.546875,0.203125 -0.640625,0.34375 -0.15625,-0.28125 -0.484375,-0.34375 -0.65625,-0.34375 -0.625,0 -0.984375,0.59375 -0.984375,0.765625 0,0.078125 0.078125,0.078125 0.109375,0.078125 0.046875,0 0.078125,0 0.109375,-0.0625 0.140625,-0.484375 0.546875,-0.609375 0.734375,-0.609375 0.171875,0 0.359375,0.0625 0.359375,0.328125 0,0.125 -0.09375,0.46875 -0.265625,1.140625 -0.0625,0.28125 -0.296875,0.453125 -0.515625,0.453125 -0.03125,0 -0.171875,0 -0.296875,-0.078125 0.21875,-0.09375 0.21875,-0.28125 0.21875,-0.296875 0,-0.140625 -0.109375,-0.203125 -0.21875,-0.203125 -0.125,0 -0.296875,0.09375 -0.296875,0.328125 0,0.3125 0.328125,0.421875 0.59375,0.421875 0.265625,0 0.5,-0.171875 0.609375,-0.34375 C 1.875,0.015625 2.1875,0.0625 2.34375,0.0625 c 0.625,0 0.984375,-0.59375 0.984375,-0.78125 0,-0.0625 -0.078125,-0.0625 -0.109375,-0.0625 -0.078125,0 -0.09375,0.03125 -0.109375,0.0625 C 2.96875,-0.265625 2.59375,-0.109375 2.375,-0.109375 c -0.15625,0 -0.359375,-0.0625 -0.359375,-0.34375 0,-0.0625 0,-0.09375 0.03125,-0.265625 0.09375,-0.34375 0.21875,-0.890625 0.265625,-0.984375 0.0625,-0.125 0.234375,-0.328125 0.484375,-0.328125 0.015625,0 0.1875,0 0.296875,0.078125 z m 0,0"
             id="id-6e829bdc-2fc6-4378-b083-4540bf511522" />
        </g>
      </g>
      <path
         fill="none"
         stroke-width="0.339"
         stroke-linecap="butt"
         stroke-linejoin="miter"
         stroke="#000000"
         stroke-opacity="1"
         stroke-miterlimit="10"
         d="m 48.142975,4.5616608 h 9.628906"
         id="id-f93f1f1d-5536-4d16-95aa-2ac30ccd5d16" />
      <g
         fill="#000000"
         fill-opacity="1"
         id="id-1f5a6aad-331e-4912-a683-faee27a27b1a"
         transform="translate(-235.619,-135.255)">
        <g
           transform="translate(283.76,143.959)"
           id="g27">
          <path
             d="m 4.1875,-2.78125 c 0.046875,-0.046875 0.046875,-0.0625 0.109375,-0.125 0.078125,-0.109375 0.234375,-0.25 0.546875,-0.28125 0.0625,0 0.140625,0 0.140625,-0.125 0,-0.03125 -0.015625,-0.09375 -0.078125,-0.09375 -0.078125,0 -0.15625,0.015625 -0.21875,0.015625 -0.078125,0 -0.15625,0 -0.234375,0 -0.09375,0 -0.1875,0 -0.28125,0 -0.078125,0 -0.1875,-0.015625 -0.28125,-0.015625 -0.078125,0 -0.125,0.0625 -0.125,0.140625 0,0.078125 0.09375,0.078125 0.125,0.078125 0.078125,0.015625 0.203125,0.03125 0.203125,0.125 0,0.046875 -0.015625,0.109375 -0.09375,0.203125 L 2.25,-0.46875 1.671875,-3 c 0,-0.0625 0,-0.0625 0,-0.078125 0,-0.078125 0.15625,-0.109375 0.328125,-0.109375 0.0625,0 0.140625,0 0.140625,-0.125 0,-0.046875 -0.015625,-0.09375 -0.078125,-0.09375 -0.109375,0 -0.234375,0.015625 -0.34375,0.015625 -0.109375,0 -0.234375,0 -0.34375,0 -0.109375,0 -0.21875,0 -0.328125,0 -0.09375,0 -0.203125,-0.015625 -0.296875,-0.015625 -0.03125,0 -0.109375,0 -0.109375,0.140625 0,0.078125 0.0625,0.078125 0.15625,0.078125 0.296875,0 0.296875,0.046875 0.328125,0.140625 l 0.671875,3.015625 c 0.03125,0.09375 0.046875,0.140625 0.171875,0.140625 0.0625,0 0.125,0 0.203125,-0.109375 z m 0,0"
             id="id-92eb1148-aea8-41a5-ae4e-915d32734f23" />
        </g>
      </g>
      <g
         fill="#000000"
         fill-opacity="1"
         id="id-a702802e-b208-4898-b594-3f4d5f69b6b9"
         transform="translate(-235.619,-135.255)">
        <g
           transform="translate(287.884,145.647)"
           id="g28">
          <path
             d="M 2.890625,-2.96875 C 2.9375,-3.125 2.9375,-3.140625 3.140625,-3.140625 h 0.53125 c 0.5625,0 0.640625,0.15625 0.640625,0.46875 0,0.03125 0,0.125 -0.046875,0.359375 v 0.046875 c 0,0.046875 0.03125,0.09375 0.109375,0.09375 0.09375,0 0.09375,-0.046875 0.109375,-0.140625 l 0.125,-0.890625 C 4.625,-3.25 4.625,-3.265625 4.625,-3.28125 4.625,-3.359375 4.546875,-3.359375 4.453125,-3.359375 H 0.96875 c -0.140625,0 -0.140625,0 -0.1875,0.09375 L 0.453125,-2.34375 c 0,0.015625 -0.03125,0.078125 -0.03125,0.078125 0,0.03125 0.03125,0.09375 0.109375,0.09375 0.078125,0 0.09375,-0.015625 0.125,-0.140625 0.234375,-0.59375 0.375,-0.828125 1.046875,-0.828125 H 2.25 c 0.03125,0 0.109375,0 0.15625,0.015625 v 0.03125 L 1.734375,-0.4375 C 1.703125,-0.28125 1.6875,-0.21875 1.15625,-0.21875 H 1.046875 c -0.09375,0 -0.109375,0 -0.125,0.015625 C 0.890625,-0.171875 0.875,-0.125 0.875,-0.078125 0.875,-0.0625 0.890625,0 0.96875,0 1.125,0 1.28125,-0.015625 1.4375,-0.015625 c 0.140625,0 0.296875,0 0.453125,0 0.15625,0 0.328125,0 0.484375,0 C 2.53125,-0.015625 2.6875,0 2.84375,0 2.875,0 2.96875,0 2.96875,-0.140625 2.96875,-0.21875 2.890625,-0.21875 2.8125,-0.21875 H 2.703125 c -0.140625,0 -0.265625,0 -0.40625,-0.03125 -0.03125,0 -0.0625,-0.015625 -0.0625,-0.0625 0,-0.03125 0,-0.03125 0.015625,-0.109375 z m 0,0"
             id="id-14b48395-ed88-4080-895d-332095904143" />
        </g>
      </g>
      <g
         fill="#000000"
         fill-opacity="1"
         id="id-25700a04-fa93-4201-83de-4d919bc291b7"
         transform="translate(-235.619,-135.255)">
        <g
           transform="translate(297.3,146.72)"
           id="g29">
          <path
             d="m 6.5625,-2.296875 c 0.171875,0 0.359375,0 0.359375,-0.203125 0,-0.1875 -0.1875,-0.1875 -0.359375,-0.1875 H 1.171875 c -0.171875,0 -0.34375,0 -0.34375,0.1875 0,0.203125 0.171875,0.203125 0.34375,0.203125 z m 0,0"
             id="id-81900fec-99fb-4855-a4a9-d84013f4378e" />
        </g>
      </g>
      <g
         fill="#000000"
         fill-opacity="1"
         id="id-6e63dab7-7945-4413-83fe-5d3f690a7891"
         transform="translate(-235.619,-135.255)">
        <g
           transform="translate(307.261,146.72)"
           id="g30">
          <path
             d="m 2.9375,-6.375 c 0,-0.25 0,-0.265625 -0.234375,-0.265625 C 2.078125,-6 1.203125,-6 0.890625,-6 v 0.3125 c 0.203125,0 0.78125,0 1.296875,-0.265625 v 5.171875 c 0,0.359375 -0.03125,0.46875 -0.921875,0.46875 h -0.3125 V 0 c 0.34375,-0.03125 1.203125,-0.03125 1.609375,-0.03125 0.390625,0 1.265625,0 1.609375,0.03125 v -0.3125 h -0.3125 c -0.90625,0 -0.921875,-0.109375 -0.921875,-0.46875 z m 0,0"
             id="id-7e66aff1-66d6-4290-b2df-3c53be677e53" />
        </g>
      </g>
      <g
         fill="#000000"
         fill-opacity="1"
         id="id-a7bb55fc-7e64-4fa3-9e6f-23429ffe3c2c"
         transform="translate(-235.619,-135.255)">
        <g
           transform="translate(312.244,135.661)"
           id="g31">
          <path
             d="m 4.140625,8.5625 c 0,-2.859375 -0.65625,-5.90625 -2.625,-8.140625 C 1.375,0.265625 1,-0.125 0.765625,-0.34375 c -0.0625,-0.0625 -0.09375,-0.0625 -0.21875,-0.0625 -0.09375,0 -0.1875,0 -0.1875,0.109375 0,0.03125 0.046875,0.078125 0.0625,0.09375 0.328125,0.359375 0.875,0.90625 1.484375,2 1.078125,1.90625 1.484375,4.375 1.484375,6.765625 0,4.328125 -1.203125,6.96875 -2.984375,8.796875 C 0.375,17.375 0.359375,17.40625 0.359375,17.4375 c 0,0.09375 0.09375,0.09375 0.1875,0.09375 0.125,0 0.15625,0 0.234375,-0.07813 0.953125,-0.8125 2.015625,-2.203125 2.703125,-4.296875 0.4375,-1.375 0.65625,-2.984375 0.65625,-4.59375 z m 0,0"
             id="id-01fa6a5f-6ed8-4eca-937c-cff20467854b" />
        </g>
      </g>
      <g
         fill="#000000"
         fill-opacity="1"
         id="id-a462f111-64b3-4ecd-9a1a-88e722246705"
         transform="translate(-235.619,-135.255)">
        <g
           transform="translate(320.962,146.72)"
           id="g32">
          <path
             d="m 6.84375,-3.265625 c 0.15625,0 0.34375,0 0.34375,-0.1875 C 7.1875,-3.65625 7,-3.65625 6.859375,-3.65625 h -5.96875 c -0.140625,0 -0.328125,0 -0.328125,0.203125 0,0.1875 0.1875,0.1875 0.328125,0.1875 z m 0.015625,1.9375 c 0.140625,0 0.328125,0 0.328125,-0.203125 0,-0.1875 -0.1875,-0.1875 -0.34375,-0.1875 H 0.890625 c -0.140625,0 -0.328125,0 -0.328125,0.1875 0,0.203125 0.1875,0.203125 0.328125,0.203125 z m 0,0"
             id="id-a48a286a-a395-455d-98fd-be81b4a66197" />
        </g>
      </g>
      <g
         fill="#000000"
         fill-opacity="1"
         id="id-66f3843b-d349-49b2-8cc8-ffb4fc9e4480"
         transform="translate(-235.619,-135.255)">
        <g
           transform="translate(331.481,146.72)"
           id="g33">
          <path
             d="M 3.71875,-3.765625 C 3.53125,-4.140625 3.25,-4.40625 2.796875,-4.40625 c -1.15625,0 -2.390625,1.46875 -2.390625,2.921875 0,0.9375 0.546875,1.59375 1.3125,1.59375 0.203125,0 0.703125,-0.046875 1.296875,-0.75 0.078125,0.421875 0.4375,0.75 0.90625,0.75 0.359375,0 0.578125,-0.234375 0.75,-0.546875 0.15625,-0.359375 0.296875,-0.96875 0.296875,-0.984375 0,-0.109375 -0.09375,-0.109375 -0.125,-0.109375 -0.09375,0 -0.109375,0.046875 -0.140625,0.1875 -0.171875,0.640625 -0.34375,1.234375 -0.75,1.234375 -0.28125,0 -0.296875,-0.265625 -0.296875,-0.453125 0,-0.21875 0.015625,-0.3125 0.125,-0.75 C 3.890625,-1.71875 3.90625,-1.828125 4,-2.203125 L 4.359375,-3.59375 c 0.0625,-0.28125 0.0625,-0.296875 0.0625,-0.34375 0,-0.171875 -0.109375,-0.265625 -0.28125,-0.265625 -0.25,0 -0.390625,0.21875 -0.421875,0.4375 z M 3.078125,-1.1875 C 3.015625,-1 3.015625,-0.984375 2.875,-0.8125 2.4375,-0.265625 2.03125,-0.109375 1.75,-0.109375 c -0.5,0 -0.640625,-0.546875 -0.640625,-0.9375 0,-0.5 0.3125,-1.71875 0.546875,-2.1875 0.3125,-0.578125 0.75,-0.953125 1.15625,-0.953125 0.640625,0 0.78125,0.8125 0.78125,0.875 0,0.0625 -0.015625,0.125 -0.03125,0.171875 z m 0,0"
             id="id-1760480a-8d12-4a74-9a6b-4050b227f7c3" />
        </g>
      </g>
      <g
         fill="#000000"
         fill-opacity="1"
         id="id-a8865eae-6cc4-4ef1-aca0-8367ea575978"
         transform="translate(-235.619,-135.255)">
        <g
           transform="translate(338.958,146.72)"
           id="g34">
          <path
             d="m 6.5625,-2.296875 c 0.171875,0 0.359375,0 0.359375,-0.203125 0,-0.1875 -0.1875,-0.1875 -0.359375,-0.1875 H 1.171875 c -0.171875,0 -0.34375,0 -0.34375,0.1875 0,0.203125 0.171875,0.203125 0.34375,0.203125 z m 0,0"
             id="id-1ac71a12-69fa-44f4-bdb2-f37fdf0b0929" />
        </g>
      </g>
      <g
         fill="#000000"
         fill-opacity="1"
         id="id-dfaa95b2-5a37-4ff4-9668-9110e3d8d073"
         transform="translate(-235.619,-135.255)">
        <g
           transform="translate(348.919,146.72)"
           id="g35">
          <path
             d="m 2.375,-6.8125 c 0,0 0,-0.109375 -0.125,-0.109375 -0.21875,0 -0.953125,0.078125 -1.21875,0.109375 -0.078125,0 -0.1875,0.015625 -0.1875,0.1875 0,0.125 0.09375,0.125 0.25,0.125 0.46875,0 0.484375,0.0625 0.484375,0.171875 0,0.0625 -0.078125,0.40625 -0.125,0.609375 l -0.828125,3.25 c -0.109375,0.5 -0.15625,0.671875 -0.15625,1.015625 0,0.9375 0.53125,1.5625 1.265625,1.5625 1.171875,0 2.40625,-1.484375 2.40625,-2.921875 0,-0.90625 -0.53125,-1.59375 -1.328125,-1.59375 -0.453125,0 -0.875,0.296875 -1.171875,0.59375 z M 1.453125,-3.046875 C 1.5,-3.265625 1.5,-3.28125 1.59375,-3.390625 2.078125,-4.03125 2.53125,-4.1875 2.796875,-4.1875 c 0.359375,0 0.625,0.296875 0.625,0.9375 0,0.59375 -0.328125,1.734375 -0.515625,2.109375 -0.328125,0.671875 -0.78125,1.03125 -1.171875,1.03125 -0.34375,0 -0.671875,-0.265625 -0.671875,-1 0,-0.203125 0,-0.390625 0.15625,-1.015625 z m 0,0"
             id="id-2c7189f7-65b5-4177-8208-83d9b99ac51d" />
        </g>
      </g>
      <g
         fill="#000000"
         fill-opacity="1"
         id="id-d6e5cb3c-3264-42d6-a40a-2de4b94c9d5c"
         transform="translate(-235.619,-135.255)">
        <g
           transform="translate(355.407,146.72)"
           id="g36">
          <path
             d="m 1.90625,-2.5 c 0,-0.28125 -0.234375,-0.515625 -0.515625,-0.515625 -0.296875,0 -0.53125,0.234375 -0.53125,0.515625 0,0.296875 0.234375,0.53125 0.53125,0.53125 0.28125,0 0.515625,-0.234375 0.515625,-0.53125 z m 0,0"
             id="id-bb93b15c-8f9e-406c-b173-2585e591fa21" />
        </g>
      </g>
      <g
         fill="#000000"
         fill-opacity="1"
         id="id-52032c7b-1a09-4578-9efc-f0832d3e10eb"
         transform="translate(-235.619,-135.255)">
        <g
           transform="translate(360.396,146.72)"
           id="g37">
          <path
             d="m 1.859375,-2.296875 c 0.296875,0 1.03125,-0.03125 1.53125,-0.234375 0.703125,-0.296875 0.75,-0.890625 0.75,-1.03125 0,-0.4375 -0.375,-0.84375 -1.0625,-0.84375 -1.109375,0 -2.625,0.96875 -2.625,2.71875 0,1.015625 0.59375,1.796875 1.578125,1.796875 1.421875,0 2.25,-1.0625 2.25,-1.171875 0,-0.0625 -0.046875,-0.140625 -0.109375,-0.140625 -0.0625,0 -0.078125,0.03125 -0.140625,0.109375 -0.78125,0.984375 -1.875,0.984375 -1.984375,0.984375 -0.78125,0 -0.875,-0.84375 -0.875,-1.15625 0,-0.125 0.015625,-0.421875 0.15625,-1.03125 z m -0.46875,-0.21875 C 1.78125,-4.03125 2.8125,-4.1875 3.078125,-4.1875 c 0.453125,0 0.734375,0.296875 0.734375,0.625 0,1.046875 -1.59375,1.046875 -2.015625,1.046875 z m 0,0"
             id="id-69a29d65-9572-4ba9-b83a-d1c77133a33b" />
        </g>
      </g>
      <g
         fill="#000000"
         fill-opacity="1"
         id="id-4c663ade-dd05-438a-87e0-4857f1e7802c"
         transform="translate(-235.619,-135.255)">
        <g
           transform="translate(365.03,142.606)"
           id="g38">
          <path
             d="m 3.046875,-2.671875 c -0.25,0.046875 -0.34375,0.234375 -0.34375,0.390625 0,0.1875 0.140625,0.265625 0.265625,0.265625 0.15625,0 0.390625,-0.109375 0.390625,-0.453125 0,-0.46875 -0.53125,-0.609375 -0.90625,-0.609375 -1.046875,0 -2.015625,0.96875 -2.015625,1.9375 0,0.59375 0.40625,1.203125 1.28125,1.203125 1.1875,0 1.734375,-0.6875 1.734375,-0.78125 0,-0.046875 -0.0625,-0.125 -0.125,-0.125 -0.03125,0 -0.046875,0.015625 -0.109375,0.078125 C 2.671875,-0.125 1.859375,-0.125 1.734375,-0.125 c -0.5,0 -0.71875,-0.34375 -0.71875,-0.78125 0,-0.1875 0.09375,-0.953125 0.453125,-1.4375 0.265625,-0.34375 0.625,-0.53125 0.984375,-0.53125 0.09375,0 0.421875,0.015625 0.59375,0.203125 z m 0,0"
             id="id-6e14ba9a-9fa2-4431-8fae-2d38a459582a" />
        </g>
      </g>
      <g
         fill="#000000"
         fill-opacity="1"
         id="id-e1827908-0323-4113-a519-58b74eaa21b3"
         transform="translate(-235.619,-135.255)">
        <g
           transform="translate(368.59,142.606)"
           id="g39">
          <path
             d="M 1.578125,-1.734375 C 1.578125,-2 1.375,-2.140625 1.1875,-2.140625 c -0.234375,0 -0.40625,0.1875 -0.40625,0.390625 0,0.25 0.203125,0.40625 0.390625,0.40625 0.234375,0 0.40625,-0.1875 0.40625,-0.390625 z m 0,0"
             id="id-6266bfee-bd54-4aff-94ae-bb52d4393972" />
        </g>
      </g>
      <g
         fill="#000000"
         fill-opacity="1"
         id="id-aa58d5fd-6149-45c0-b0ce-4d51a219aa96"
         transform="translate(-235.619,-135.255)">
        <g
           transform="translate(370.956,142.606)"
           id="g40">
          <path
             d="M 1.734375,-0.734375 C 1.671875,-0.5 1.4375,-0.125 1.078125,-0.125 c -0.015625,0 -0.234375,0 -0.375,-0.09375 0.28125,-0.09375 0.3125,-0.34375 0.3125,-0.390625 0,-0.15625 -0.125,-0.25 -0.28125,-0.25 -0.203125,0 -0.40625,0.15625 -0.40625,0.421875 0,0.34375 0.390625,0.5 0.734375,0.5 0.328125,0 0.609375,-0.1875 0.78125,-0.484375 C 2.015625,-0.0625 2.390625,0.0625 2.671875,0.0625 c 0.8125,0 1.234375,-0.859375 1.234375,-1.0625 0,-0.09375 -0.09375,-0.09375 -0.109375,-0.09375 -0.109375,0 -0.109375,0.046875 -0.140625,0.125 -0.140625,0.484375 -0.5625,0.84375 -0.953125,0.84375 -0.28125,0 -0.421875,-0.1875 -0.421875,-0.453125 0,-0.1875 0.171875,-0.8125 0.359375,-1.59375 C 2.78125,-2.703125 3.09375,-2.875 3.328125,-2.875 c 0.015625,0 0.21875,0 0.375,0.09375 -0.21875,0.0625 -0.3125,0.265625 -0.3125,0.390625 0,0.140625 0.125,0.25 0.28125,0.25 0.15625,0 0.390625,-0.125 0.390625,-0.421875 0,-0.390625 -0.453125,-0.515625 -0.71875,-0.515625 -0.359375,0 -0.640625,0.234375 -0.78125,0.5 -0.125,-0.28125 -0.453125,-0.5 -0.84375,-0.5 C 0.9375,-3.078125 0.5,-2.21875 0.5,-2 c 0,0.078125 0.09375,0.078125 0.109375,0.078125 0.09375,0 0.09375,-0.015625 0.140625,-0.109375 C 0.921875,-2.578125 1.359375,-2.875 1.703125,-2.875 1.9375,-2.875 2.125,-2.75 2.125,-2.421875 2.125,-2.28125 2.03125,-1.9375 1.96875,-1.6875 Z m 0,0"
             id="id-5856618d-b853-4a28-81b9-5dc771c86b10" />
        </g>
      </g>
    </g>
  </g>
</svg>
